<svg width="30" height="30" viewBox="0 0 30 30" fill="none" xmlns="http://www.w3.org/2000/svg">
<path d="M26.1645 17.013C26.505 16.3665 26.7 15.6315 26.7 14.85C26.7 12.8637 25.4523 11.1729 23.6997 10.5066C23.6997 10.5045 23.7 10.5024 23.7 10.5C23.7 7.02061 20.8794 4.20001 17.4 4.20001C14.4648 4.20001 12.0057 6.21031 11.3061 8.92711C10.8633 8.78161 10.3914 8.70001 9.89995 8.70001C7.59235 8.70001 5.69305 10.4379 5.43295 12.6756C3.87175 13.0059 2.69995 14.3907 2.69995 16.05C2.69995 17.9553 4.24465 19.5 6.14995 19.5C6.20305 19.5 6.25555 19.4964 6.30775 19.4934C6.30655 19.5459 6.29995 19.5972 6.29995 19.65C6.29995 23.0466 9.05335 25.8 12.45 25.8C14.3811 25.8 16.1025 24.9084 17.2302 23.5158C17.8836 24.1833 18.792 24.6 19.8 24.6C21.195 24.6 22.4022 23.805 22.9998 22.6446C23.3154 22.7451 23.6511 22.8 24 22.8C25.8225 22.8 27.3 21.3225 27.3 19.5C27.3 18.5067 26.859 17.6181 26.1645 17.013Z" fill="#C7EDE6"/>
<path d="M23.9625 18.15C23.9625 18.15 25.0545 18.15 25.8 18.15C26.5455 18.15 27.15 17.5455 27.15 16.8C27.15 16.1001 26.6154 15.5313 25.9335 15.4635C25.9401 15.4092 25.95 15.3561 25.95 15.3C25.95 14.5545 25.3455 13.95 24.6 13.95C24.1686 13.95 23.7891 14.1558 23.5419 14.4708C23.4999 13.68 22.8513 13.05 22.05 13.05C21.2217 13.05 20.55 13.7217 20.55 14.55C20.55 14.6838 20.5731 14.811 20.6061 14.9346C20.4135 14.7015 20.1258 14.55 19.8 14.55C19.2657 14.55 18.8298 14.9505 18.7635 15.4665C18.7092 15.4599 18.6561 15.45 18.6 15.45C17.8545 15.45 17.25 16.0545 17.25 16.8C17.25 17.5455 17.8545 18.15 18.6 18.15C19.3455 18.15 21.45 18.15 21.45 18.15H23.0625V18.3H23.9625V18.15Z" fill="#FDFCEF"/>
<path d="M22.0501 12.9C21.1402 12.9 20.4001 13.6401 20.4001 14.55C20.4001 14.5548 20.4001 14.5593 20.4001 14.5641C20.2195 14.4576 20.0131 14.4 19.8001 14.4C19.2508 14.4 18.7768 14.7783 18.6427 15.3015C18.6286 15.3006 18.6145 15.3 18.6001 15.3C17.773 15.3 17.1001 15.9729 17.1001 16.8C17.1001 17.6271 17.773 18.3 18.6001 18.3H23.0626C23.1454 18.3 23.2126 18.2328 23.2126 18.15C23.2126 18.0672 23.1454 18 23.0626 18H18.6001C17.9383 18 17.4001 17.4618 17.4001 16.8C17.4001 16.1382 17.9383 15.6 18.6001 15.6C18.6352 15.6 18.6691 15.6051 18.703 15.6096L18.7453 15.6153C18.7516 15.6162 18.7576 15.6165 18.7639 15.6165C18.8377 15.6165 18.9025 15.561 18.9124 15.4854C18.9697 15.0375 19.3513 14.7 19.8001 14.7C20.0656 14.7 20.317 14.8203 20.4904 15.03C20.5198 15.0654 20.5627 15.0846 20.6062 15.0846C20.6296 15.0846 20.653 15.0792 20.6746 15.0678C20.7373 15.0357 20.7688 14.964 20.7508 14.8959C20.7163 14.7654 20.7001 14.6556 20.7001 14.55C20.7001 13.8057 21.3058 13.2 22.0501 13.2C22.7644 13.2 23.3542 13.7616 23.3923 14.4789C23.3956 14.5413 23.4373 14.595 23.497 14.6139C23.512 14.6187 23.5273 14.6211 23.5426 14.6211C23.5876 14.6211 23.6314 14.6004 23.6602 14.5635C23.8915 14.2689 24.2338 14.1 24.6001 14.1C25.2619 14.1 25.8001 14.6382 25.8001 15.3C25.8001 15.3351 25.795 15.369 25.7905 15.4029L25.7848 15.4452C25.78 15.4854 25.7914 15.5256 25.8166 15.5571C25.8418 15.5886 25.8787 15.6087 25.9186 15.6126C26.5354 15.6741 27.0001 16.1847 27.0001 16.8C27.0001 17.4618 26.4619 18 25.8001 18H23.9626C23.8798 18 23.8126 18.0672 23.8126 18.15C23.8126 18.2328 23.8798 18.3 23.9626 18.3H25.8001C26.6272 18.3 27.3001 17.6271 27.3001 16.8C27.3001 16.0809 26.7934 15.4761 26.0992 15.3369C26.0998 15.3246 26.1001 15.3123 26.1001 15.3C26.1001 14.4729 25.4272 13.8 24.6001 13.8C24.2473 13.8 23.9122 13.9248 23.6452 14.1492C23.4658 13.428 22.8166 12.9 22.0501 12.9Z" fill="#472B29"/>
<path d="M21.5999 15C21.179 15 20.8172 15.2997 20.726 15.7023C20.6159 15.6357 20.4902 15.6 20.3624 15.6C20.0018 15.6 19.703 15.8691 19.6565 16.2204C19.5956 16.2066 19.5377 16.2 19.4813 16.2C19.0226 16.2 18.638 16.56 18.6059 17.0196C18.6029 17.061 18.6341 17.097 18.6752 17.1C18.677 17.1 18.6788 17.1 18.6806 17.1C18.7196 17.1 18.7526 17.0697 18.7553 17.0304C18.782 16.6491 19.1006 16.35 19.481 16.35C19.5497 16.35 19.622 16.3626 19.7024 16.3881C19.709 16.3902 19.7159 16.3911 19.7225 16.3911C19.739 16.3911 19.7555 16.3851 19.7693 16.3749C19.7885 16.3611 19.7999 16.3365 19.7999 16.3125C19.7999 16.0023 20.0522 15.75 20.3624 15.75C20.4965 15.75 20.6279 15.8004 20.7317 15.8919C20.7458 15.9042 20.7635 15.9108 20.7812 15.9108C20.7908 15.9108 20.8001 15.909 20.8091 15.9051C20.8355 15.8946 20.8535 15.87 20.8556 15.8415C20.8868 15.4536 21.2135 15.15 21.5999 15.15C21.6623 15.15 21.7274 15.1602 21.8045 15.1821C21.8114 15.1842 21.8186 15.1851 21.8255 15.1851C21.8582 15.1851 21.8876 15.1632 21.8972 15.1305C21.9086 15.0906 21.8855 15.0492 21.8456 15.0378C21.755 15.012 21.6767 15 21.5999 15Z" fill="#472B29"/>
<path d="M25.765 15.45C25.3672 15.45 25.0126 15.7191 24.9028 16.1046C24.8914 16.1445 24.9145 16.1859 24.9544 16.1973C24.9616 16.1991 24.9685 16.2 24.9751 16.2C25.0078 16.2 25.0378 16.1784 25.0471 16.1454C25.1386 15.8244 25.4338 15.6 25.765 15.6C25.8001 15.6 25.834 15.6042 25.8676 15.6087C25.8712 15.6093 25.8745 15.6096 25.8781 15.6096C25.9144 15.6096 25.9468 15.582 25.9519 15.5445C25.9576 15.5034 25.9288 15.4656 25.8877 15.4602C25.8475 15.4548 25.8067 15.45 25.765 15.45Z" fill="#472B29"/>
<path d="M4.6215 15.3H1.65C1.5672 15.3 1.5 15.2328 1.5 15.15C1.5 15.0672 1.5672 15 1.65 15H4.6215C4.7043 15 4.7715 15.0672 4.7715 15.15C4.7715 15.2328 4.7046 15.3 4.6215 15.3Z" fill="white"/>
<path d="M5.5501 15.3H5.2501C5.1673 15.3 5.1001 15.2328 5.1001 15.15C5.1001 15.0672 5.1673 15 5.2501 15H5.5501C5.6329 15 5.7001 15.0672 5.7001 15.15C5.7001 15.2328 5.6332 15.3 5.5501 15.3Z" fill="white"/>
<path d="M7.04725 15.9H4.34995C4.26715 15.9 4.19995 15.8328 4.19995 15.75C4.19995 15.6672 4.26715 15.6 4.34995 15.6H7.04725C7.13005 15.6 7.19725 15.6672 7.19725 15.75C7.19725 15.8328 7.13005 15.9 7.04725 15.9Z" fill="white"/>
<path d="M3.75005 15.9H3.45005C3.36725 15.9 3.30005 15.8328 3.30005 15.75C3.30005 15.6672 3.36725 15.6 3.45005 15.6H3.75005C3.83285 15.6 3.90005 15.6672 3.90005 15.75C3.90005 15.8328 3.83315 15.9 3.75005 15.9Z" fill="white"/>
<path d="M2.8501 15.9H2.2501C2.1673 15.9 2.1001 15.8328 2.1001 15.75C2.1001 15.6672 2.1673 15.6 2.2501 15.6H2.8501C2.9329 15.6 3.0001 15.6672 3.0001 15.75C3.0001 15.8328 2.9332 15.9 2.8501 15.9Z" fill="white"/>
<path d="M4.6499 16.5H4.0499C3.9671 16.5 3.8999 16.4328 3.8999 16.35C3.8999 16.2672 3.9671 16.2 4.0499 16.2H4.6499C4.7327 16.2 4.7999 16.2672 4.7999 16.35C4.7999 16.4328 4.7327 16.5 4.6499 16.5Z" fill="white"/>
<path d="M5.5501 13.8C5.497 13.8 5.3032 13.8 5.2501 13.8C5.1673 13.8 5.1001 13.8672 5.1001 13.95C5.1001 14.0328 5.1673 14.1 5.2501 14.1C5.3032 14.1 5.497 14.1 5.5501 14.1C5.6329 14.1 5.7001 14.0328 5.7001 13.95C5.7001 13.8672 5.6329 13.8 5.5501 13.8Z" fill="white"/>
<path d="M5.5499 14.4C5.4968 14.4 4.103 14.4 4.0499 14.4C3.9671 14.4 3.8999 14.4672 3.8999 14.55C3.8999 14.6328 3.9671 14.7 4.0499 14.7C4.103 14.7 5.4968 14.7 5.5499 14.7C5.6327 14.7 5.6999 14.6328 5.6999 14.55C5.6999 14.4672 5.6327 14.4 5.5499 14.4Z" fill="white"/>
<path d="M7.05 15C6.9969 15 6.2031 15 6.15 15C6.0672 15 6 15.0672 6 15.15C6 15.2328 6.0672 15.3 6.15 15.3C6.2031 15.3 6.9969 15.3 7.05 15.3C7.1328 15.3 7.2 15.2328 7.2 15.15C7.2 15.0672 7.1328 15 7.05 15Z" fill="white"/>
<path d="M21.7501 7.19996H18.7501C18.6673 7.19996 18.6001 7.13276 18.6001 7.04996C18.6001 6.96716 18.6673 6.89996 18.7501 6.89996H21.7501C21.8329 6.89996 21.9001 6.96716 21.9001 7.04996C21.9001 7.13276 21.8329 7.19996 21.7501 7.19996Z" fill="white"/>
<path d="M22.9502 7.19996H22.3502C22.2674 7.19996 22.2002 7.13276 22.2002 7.04996C22.2002 6.96716 22.2674 6.89996 22.3502 6.89996H22.9502C23.033 6.89996 23.1002 6.96716 23.1002 7.04996C23.1002 7.13276 23.033 7.19996 22.9502 7.19996Z" fill="white"/>
<path d="M24.45 7.8H21.45C21.3672 7.8 21.3 7.7328 21.3 7.65C21.3 7.5672 21.3672 7.5 21.45 7.5H24.45C24.5328 7.5 24.6 7.5672 24.6 7.65C24.6 7.7328 24.5331 7.8 24.45 7.8Z" fill="white"/>
<path d="M20.8501 7.8H20.5501C20.4673 7.8 20.4001 7.7328 20.4001 7.65C20.4001 7.5672 20.4673 7.5 20.5501 7.5H20.8501C20.9329 7.5 21.0001 7.5672 21.0001 7.65C21.0001 7.7328 20.9329 7.8 20.8501 7.8Z" fill="white"/>
<path d="M19.9127 7.8H19.3502C19.2674 7.8 19.2002 7.7328 19.2002 7.65C19.2002 7.5672 19.2674 7.5 19.3502 7.5H19.9127C19.9955 7.5 20.0627 7.5672 20.0627 7.65C20.0627 7.7328 19.9955 7.8 19.9127 7.8Z" fill="white"/>
<path d="M22.65 6.59999H21.15C21.0672 6.59999 21 6.53279 21 6.44999C21 6.36719 21.0672 6.29999 21.15 6.29999H22.65C22.7328 6.29999 22.8 6.36719 22.8 6.44999C22.8 6.53279 22.7331 6.59999 22.65 6.59999Z" fill="white"/>
<path d="M21.75 8.39998H21.15C21.0672 8.39998 21 8.33278 21 8.24998C21 8.16718 21.0672 8.09998 21.15 8.09998H21.75C21.8328 8.09998 21.9 8.16718 21.9 8.24998C21.9 8.33278 21.8328 8.39998 21.75 8.39998Z" fill="white"/>
<path d="M8.99658 19.2033V10.7967C8.99658 9.63692 9.93678 8.69672 11.0966 8.69672H19.5035C20.6633 8.69672 21.6035 9.63692 21.6035 10.7967V19.2036C21.6035 20.3634 20.6633 21.3036 19.5035 21.3036H11.0966C9.93678 21.3033 8.99658 20.3631 8.99658 19.2033Z" fill="#E1E0D8"/>
<path d="M19.9124 21.2628C20.8763 21.0723 21.6032 20.223 21.6032 19.2033V18.15H19.9124V21.2628Z" fill="#48CC5F"/>
<path d="M21.6032 15H19.9124V18.15H21.6032V15Z" fill="#F5921E"/>
<path d="M21.6032 11.85H19.9124V15H21.6032V11.85Z" fill="#55A7F9"/>
<path d="M21.6032 10.7967C21.6032 9.77704 20.8763 8.92774 19.9124 8.73724V11.85H21.6032V10.7967Z" fill="#B2B0A6"/>
<path d="M14.3999 18.75C15.4901 18.75 16.4684 18.282 17.1536 17.5395C17.1311 17.4984 16.4636 16.3125 14.3999 16.3125C12.3362 16.3125 11.6687 17.4984 11.6462 17.5392C12.3314 18.282 13.3097 18.75 14.3999 18.75Z" fill="#B2B0A6"/>
<path d="M14.3999 12.7125C13.6763 12.7125 13.0874 13.335 13.0874 14.1C13.0874 14.865 13.6763 15.4875 14.3999 15.4875C15.1235 15.4875 15.7124 14.865 15.7124 14.1C15.7124 13.335 15.1235 12.7125 14.3999 12.7125Z" fill="#B2B0A6"/>
<path d="M19.5 8.82002C20.5917 8.82002 21.4799 9.70832 21.4799 10.8V19.2C21.4799 20.2917 20.5917 21.18 19.5 21.18H11.1C10.0083 21.18 9.11995 20.2917 9.11995 19.2V10.8C9.11995 9.70832 10.0083 8.82002 11.1 8.82002H19.5ZM19.5 8.40002H11.1C9.77455 8.40002 8.69995 9.47462 8.69995 10.8V19.2C8.69995 20.5254 9.77455 21.6 11.1 21.6H19.5C20.8254 21.6 21.9 20.5254 21.9 19.2V10.8C21.9 9.47462 20.8254 8.40002 19.5 8.40002Z" fill="#472B29"/>
<path d="M20.025 8.70001H19.8V21.3H20.025V8.70001Z" fill="#472B29"/>
<path d="M21.5999 11.7375H19.9124V11.9625H21.5999V11.7375Z" fill="#472B29"/>
<path d="M21.5999 14.8875H19.9124V15.1125H21.5999V14.8875Z" fill="#472B29"/>
<path d="M21.5999 18.0354H19.9124V18.2604H21.5999V18.0354Z" fill="#472B29"/>
<path d="M14.4 18.9C12.2496 18.9 10.5 17.1504 10.5 15C10.5 12.8496 12.2496 11.1 14.4 11.1C16.5504 11.1 18.3 12.8496 18.3 15C18.3 17.1504 16.5504 18.9 14.4 18.9ZM14.4 11.4C12.4149 11.4 10.8 13.0149 10.8 15C10.8 16.9851 12.4149 18.6 14.4 18.6C16.3851 18.6 18 16.9851 18 15C18 13.0149 16.3851 11.4 14.4 11.4Z" fill="#472B29"/>
<path d="M14.3999 15.6C13.6142 15.6 12.9749 14.9271 12.9749 14.1C12.9749 13.2729 13.6142 12.6 14.3999 12.6C15.1856 12.6 15.8249 13.2729 15.8249 14.1C15.8249 14.9271 15.1856 15.6 14.3999 15.6ZM14.3999 12.825C13.7381 12.825 13.1999 13.3971 13.1999 14.1C13.1999 14.8029 13.7381 15.375 14.3999 15.375C15.0617 15.375 15.5999 14.8029 15.5999 14.1C15.5999 13.3971 15.0617 12.825 14.3999 12.825Z" fill="#472B29"/>
<path d="M17.055 17.5932C17.0289 17.5455 16.3956 16.425 14.4 16.425C12.4023 16.425 11.7711 17.5452 11.745 17.5929L11.5476 17.4858C11.5761 17.433 12.2697 16.2 14.4 16.2C16.5276 16.2 17.2239 17.433 17.2524 17.4855L17.055 17.5932Z" fill="#472B29"/>
<path d="M10.9498 22.05C10.9498 22.05 11.4199 22.05 11.9998 22.05C12.5797 22.05 13.0498 21.5799 13.0498 21C13.0498 20.4657 12.6493 20.0298 12.1333 19.9635C12.1417 19.9098 12.1498 19.8561 12.1498 19.8C12.1498 19.2201 11.6797 18.75 11.0998 18.75C10.7902 18.75 10.5148 18.8865 10.3228 19.0995C10.2076 18.5571 9.72671 18.15 9.1498 18.15C8.4871 18.15 7.9498 18.6873 7.9498 19.35C7.9498 19.4073 7.9588 19.4622 7.9666 19.5174C7.8382 19.4142 7.6774 19.35 7.4998 19.35C7.1314 19.35 6.8263 19.6161 6.7633 19.9665C6.7096 19.9581 6.6559 19.95 6.5998 19.95C6.0199 19.95 5.5498 20.4201 5.5498 21C5.5498 21.5799 6.0199 22.05 6.5998 22.05C7.1797 22.05 8.8498 22.05 8.8498 22.05V22.2H10.9498V22.05Z" fill="#FDFCEF"/>
<path d="M11.4749 20.7C11.4335 20.7 11.3999 20.6664 11.3999 20.625C11.3999 20.2581 11.6984 19.9596 12.0653 19.9596C12.0755 19.9623 12.2864 19.9593 12.4385 20.0004C12.4784 20.0112 12.5021 20.0523 12.4913 20.0922C12.4805 20.1324 12.4394 20.1561 12.3995 20.145C12.2663 20.109 12.0695 20.109 12.0656 20.1096C11.7812 20.1096 11.5499 20.3409 11.5499 20.625C11.5499 20.6664 11.5163 20.7 11.4749 20.7Z" fill="#472B29"/>
<path d="M9.4498 22.2C9.53265 22.2 9.5998 22.1329 9.5998 22.05C9.5998 21.9672 9.53265 21.9 9.4498 21.9C9.36696 21.9 9.2998 21.9672 9.2998 22.05C9.2998 22.1329 9.36696 22.2 9.4498 22.2Z" fill="#472B29"/>
<path d="M11.9999 22.2H10.9499C10.8671 22.2 10.7999 22.1328 10.7999 22.05C10.7999 21.9672 10.8671 21.9 10.9499 21.9H11.9999C12.4961 21.9 12.8999 21.4962 12.8999 21C12.8999 20.5512 12.5624 20.1696 12.1145 20.1123C12.0743 20.1069 12.038 20.0859 12.0137 20.0535C11.9894 20.0211 11.9792 19.9803 11.9855 19.9404C11.9924 19.8942 11.9999 19.848 11.9999 19.8C11.9999 19.3038 11.5961 18.9 11.0999 18.9C10.8449 18.9 10.6085 19.0065 10.4342 19.2C10.3967 19.2417 10.3379 19.2594 10.2842 19.2444C10.2296 19.2297 10.1879 19.1859 10.1762 19.1307C10.0739 18.6495 9.6422 18.3 9.1499 18.3C8.5709 18.3 8.0999 18.771 8.0999 19.35C8.0999 19.3929 8.1062 19.434 8.1122 19.4754C8.1209 19.5363 8.0933 19.6068 8.0396 19.6374C7.9859 19.668 7.9208 19.6728 7.8728 19.6344C7.7633 19.5465 7.6346 19.5 7.4999 19.5C7.2101 19.5 6.9623 19.7073 6.911 19.9932C6.8966 20.0733 6.8222 20.127 6.7403 20.1147C6.6941 20.1075 6.6479 20.1 6.5999 20.1C6.1037 20.1 5.6999 20.5038 5.6999 21C5.6999 21.4962 6.1037 21.9 6.5999 21.9H8.8499C8.9327 21.9 8.9999 21.9672 8.9999 22.05C8.9999 22.1328 8.9327 22.2 8.8499 22.2H6.5999C5.9381 22.2 5.3999 21.6618 5.3999 21C5.3999 20.3382 5.9381 19.8 6.5999 19.8C6.6176 19.8 6.6347 19.8006 6.6521 19.8018C6.7763 19.446 7.1132 19.2 7.4999 19.2C7.6046 19.2 7.7066 19.2183 7.8032 19.254C7.8527 18.5541 8.4377 18 9.1499 18C9.6992 18 10.1897 18.3381 10.3958 18.8322C10.5998 18.6828 10.8464 18.6 11.0999 18.6C11.7617 18.6 12.2999 19.1382 12.2999 19.8C12.2999 19.8144 12.2996 19.8285 12.2987 19.8426C12.8216 19.977 13.1999 20.4507 13.1999 21C13.1999 21.6618 12.6617 22.2 11.9999 22.2Z" fill="#472B29"/>
<path d="M10.3499 21.9C10.3022 21.9 10.0976 21.9 10.0499 21.9C9.9671 21.9 9.8999 21.9672 9.8999 22.05C9.8999 22.1328 9.9671 22.2 10.0499 22.2C10.0976 22.2 10.3022 22.2 10.3499 22.2C10.4327 22.2 10.4999 22.1328 10.4999 22.05C10.4999 21.9672 10.4327 21.9 10.3499 21.9Z" fill="#472B29"/>
</svg>
