<svg xmlns="http://www.w3.org/2000/svg"  viewBox="0 0 100 100" width="500px" height="500px"><path fill="#c7ede6" d="M87.215,56.71C88.35,54.555,89,52.105,89,49.5c0-6.621-4.159-12.257-10.001-14.478 C78.999,35.015,79,35.008,79,35c0-11.598-9.402-21-21-21c-9.784,0-17.981,6.701-20.313,15.757C36.211,29.272,34.638,29,33,29 c-7.692,0-14.023,5.793-14.89,13.252C12.906,43.353,9,47.969,9,53.5C9,59.851,14.149,65,20.5,65c0.177,0,0.352-0.012,0.526-0.022 C21.022,65.153,21,65.324,21,65.5C21,76.822,30.178,86,41.5,86c6.437,0,12.175-2.972,15.934-7.614C59.612,80.611,62.64,82,66,82 c4.65,0,8.674-2.65,10.666-6.518C77.718,75.817,78.837,76,80,76c6.075,0,11-4.925,11-11C91,61.689,89.53,58.727,87.215,56.71z"/><path fill="#fff" d="M15.405,49H5.5C5.224,49,5,48.776,5,48.5S5.224,48,5.5,48h9.905c0.276,0,0.5,0.224,0.5,0.5 S15.682,49,15.405,49z M18.5,49h-1c-0.276,0-0.5-0.224-0.5-0.5s0.224-0.5,0.5-0.5h1c0.276,0,0.5,0.224,0.5,0.5S18.777,49,18.5,49z M23.491,51H14.5c-0.276,0-0.5-0.224-0.5-0.5s0.224-0.5,0.5-0.5h8.991c0.276,0,0.5,0.224,0.5,0.5S23.767,51,23.491,51z M12.5,51 h-1c-0.276,0-0.5-0.224-0.5-0.5s0.224-0.5,0.5-0.5h1c0.276,0,0.5,0.224,0.5,0.5S12.777,51,12.5,51z M9.5,51h-2 C7.224,51,7,50.776,7,50.5S7.224,50,7.5,50h2c0.276,0,0.5,0.224,0.5,0.5S9.777,51,9.5,51z M15.5,53h-2c-0.276,0-0.5-0.224-0.5-0.5 s0.224-0.5,0.5-0.5h2c0.276,0,0.5,0.224,0.5,0.5S15.776,53,15.5,53z M18.5,44c-0.177,0-0.823,0-1,0c-0.276,0-0.5,0.224-0.5,0.5 s0.224,0.5,0.5,0.5c0.177,0,0.823,0,1,0c0.276,0,0.5-0.224,0.5-0.5S18.776,44,18.5,44z M18.5,46c-0.177,0-4.823,0-5,0 c-0.276,0-0.5,0.224-0.5,0.5s0.224,0.5,0.5,0.5c0.177,0,4.823,0,5,0c0.276,0,0.5-0.224,0.5-0.5S18.776,46,18.5,46z M23.5,48 c-0.177,0-2.823,0-3,0c-0.276,0-0.5,0.224-0.5,0.5s0.224,0.5,0.5,0.5c0.177,0,2.823,0,3,0c0.276,0,0.5-0.224,0.5-0.5 S23.776,48,23.5,48z M87.5,65h-10c-0.276,0-0.5-0.224-0.5-0.5s0.224-0.5,0.5-0.5h10c0.276,0,0.5,0.224,0.5,0.5S87.776,65,87.5,65z M91.5,65h-2c-0.276,0-0.5-0.224-0.5-0.5s0.224-0.5,0.5-0.5h2c0.276,0,0.5,0.224,0.5,0.5S91.776,65,91.5,65z M96.5,67h-10 c-0.276,0-0.5-0.224-0.5-0.5s0.224-0.5,0.5-0.5h10c0.276,0,0.5,0.224,0.5,0.5S96.777,67,96.5,67z M84.5,67h-1 c-0.276,0-0.5-0.224-0.5-0.5s0.224-0.5,0.5-0.5h1c0.276,0,0.5,0.224,0.5,0.5S84.776,67,84.5,67z M81.375,67H79.5 c-0.276,0-0.5-0.224-0.5-0.5s0.224-0.5,0.5-0.5h1.875c0.276,0,0.5,0.224,0.5,0.5S81.651,67,81.375,67z M90.5,63h-5 c-0.276,0-0.5-0.224-0.5-0.5s0.224-0.5,0.5-0.5h5c0.276,0,0.5,0.224,0.5,0.5S90.777,63,90.5,63z M87.5,69h-2 c-0.276,0-0.5-0.224-0.5-0.5s0.224-0.5,0.5-0.5h2c0.276,0,0.5,0.224,0.5,0.5S87.776,69,87.5,69z"/><path fill="#fdfcef" d="M35.524,76.577c0,0,1.567,0,3.5,0s3.5-1.567,3.5-3.5c0-1.781-1.335-3.234-3.055-3.455 c0.028-0.179,0.055-0.358,0.055-0.545c0-1.933-1.567-3.5-3.5-3.5c-1.032,0-1.95,0.455-2.59,1.165 c-0.384-1.808-1.987-3.165-3.91-3.165c-2.209,0-4,1.791-4,4c0,0.191,0.03,0.374,0.056,0.558c-0.428-0.344-0.964-0.558-1.556-0.558 c-1.228,0-2.245,0.887-2.455,2.055c-0.179-0.028-0.358-0.055-0.545-0.055c-1.933,0-3.5,1.567-3.5,3.5s1.567,3.5,3.5,3.5 s7.5,0,7.5,0v0.5h7V76.577z"/><path fill="#472b29" d="M37.274,72.077c-0.138,0-0.25-0.112-0.25-0.25c0-1.223,0.995-2.218,2.218-2.218 c0.034,0.009,0.737-0.001,1.244,0.136c0.133,0.036,0.212,0.173,0.176,0.306c-0.036,0.134-0.173,0.213-0.306,0.176 c-0.444-0.12-1.1-0.12-1.113-0.118c-0.948,0-1.719,0.771-1.719,1.718C37.524,71.965,37.412,72.077,37.274,72.077z M30.524,76.077 c-0.276,0-0.5,0.224-0.5,0.5s0.224,0.5,0.5,0.5s0.5-0.224,0.5-0.5S30.8,76.077,30.524,76.077z"/><path fill="#472b29" d="M39.024,77.077h-3.5c-0.276,0-0.5-0.224-0.5-0.5s0.224-0.5,0.5-0.5h3.5c1.654,0,3-1.346,3-3 c0-1.496-1.125-2.768-2.618-2.959c-0.134-0.018-0.255-0.088-0.336-0.196s-0.115-0.244-0.094-0.377 c0.023-0.154,0.048-0.308,0.048-0.468c0-1.654-1.346-3-3-3c-0.85,0-1.638,0.355-2.219,1c-0.125,0.139-0.321,0.198-0.5,0.148 c-0.182-0.049-0.321-0.195-0.36-0.379c-0.341-1.604-1.78-2.769-3.421-2.769c-1.93,0-3.5,1.57-3.5,3.5 c0,0.143,0.021,0.28,0.041,0.418c0.029,0.203-0.063,0.438-0.242,0.54s-0.396,0.118-0.556-0.01 c-0.365-0.293-0.794-0.448-1.243-0.448c-0.966,0-1.792,0.691-1.963,1.644c-0.048,0.267-0.296,0.446-0.569,0.405 c-0.154-0.024-0.308-0.049-0.468-0.049c-1.654,0-3,1.346-3,3s1.346,3,3,3h7.5c0.276,0,0.5,0.224,0.5,0.5s-0.224,0.5-0.5,0.5h-7.5 c-2.206,0-4-1.794-4-4s1.794-4,4-4c0.059,0,0.116,0.002,0.174,0.006c0.414-1.186,1.537-2.006,2.826-2.006 c0.349,0,0.689,0.061,1.011,0.18c0.165-2.333,2.115-4.18,4.489-4.18c1.831,0,3.466,1.127,4.153,2.774 c0.68-0.498,1.502-0.774,2.347-0.774c2.206,0,4,1.794,4,4c0,0.048-0.001,0.095-0.004,0.142c1.743,0.448,3.004,2.027,3.004,3.858 C43.024,75.283,41.23,77.077,39.024,77.077z"/><path fill="#472b29" d="M33.524,76.077c-0.159,0-0.841,0-1,0c-0.276,0-0.5,0.224-0.5,0.5s0.224,0.5,0.5,0.5 c0.159,0,0.841,0,1,0c0.276,0,0.5-0.224,0.5-0.5S33.8,76.077,33.524,76.077z"/><g><circle cx="61.337" cy="52.79" r="8.263" fill="#39c1d7"/><path fill="#a0d2a1" d="M44.982,76.092L44.982,76.092c-4.39,0-7.948-3.52-7.948-7.863l0,0c0-4.342,3.559-7.863,7.948-7.863 l7.989-0.041v7.863C52.971,72.531,49.372,76.092,44.982,76.092z"/><path fill="#ee3e54" d="M44.977,44.461c-4.392,0-7.953-3.561-7.953-7.953s3.608-8.03,8-8.03l7.948,0.036v15.906 L44.977,44.461z"/><path fill="#beace5" d="M44.977,60.367c-4.392,0-7.953-3.561-7.953-7.953s3.561-7.953,7.953-7.953l7.994-0.041v15.906 L44.977,60.367z"/><path fill="#f48e8f" d="M61.624,28.477l-8.756,0.008v15.906l8.812,0.041c4.392,0,7.953-3.561,7.953-7.953 C69.632,32.088,66.016,28.477,61.624,28.477z"/><circle cx="61.337" cy="52.79" r="8.263" fill="none" stroke="#472b29" stroke-miterlimit="10" stroke-width="1.4"/><path fill="none" stroke="#472b29" stroke-miterlimit="10" stroke-width="1.4" d="M44.982,76.092L44.982,76.092 c-4.39,0-7.948-3.52-7.948-7.863l0,0c0-4.342,3.559-7.863,7.948-7.863l7.989-0.041v7.863 C52.971,72.531,49.372,76.092,44.982,76.092z"/><path fill="none" stroke="#472b29" stroke-miterlimit="10" stroke-width="1.4" d="M44.977,44.461 c-4.392,0-7.953-3.561-7.953-7.953s3.608-8.03,8-8.03h7.9l0.048,15.942L44.977,44.461z"/><path fill="none" stroke="#472b29" stroke-miterlimit="10" stroke-width="1.4" d="M44.977,60.367 c-4.392,0-7.953-3.561-7.953-7.953s3.561-7.953,7.953-7.953l7.994-0.041v15.906L44.977,60.367z"/><path fill="none" stroke="#472b29" stroke-miterlimit="10" stroke-width="1.4" d="M53.068,28.486l8.556-0.008 c4.392,0,8.008,3.61,8.008,8.003s-3.561,7.953-7.953,7.953l-8.712-0.041"/><path fill="none" stroke="#472b29" stroke-linecap="round" stroke-linejoin="round" stroke-miterlimit="10" d="M41.316,38.384 c0.702,1.188,1.997,1.985,3.477,1.985"/><path fill="none" stroke="#472b29" stroke-linecap="round" stroke-linejoin="round" stroke-miterlimit="10" d="M41.033,34.917 c-0.169,0.445-0.261,0.927-0.261,1.431"/><path fill="none" stroke="#472b29" stroke-linecap="round" stroke-linejoin="round" stroke-miterlimit="10" d="M48.824,32.291 l-4.015,0.021c-1.139,0-2.168,0.472-2.902,1.231"/><path fill="none" stroke="#472b29" stroke-linecap="round" stroke-miterlimit="10" d="M43.395,64.201 c0.473-0.175,0.985-0.271,1.519-0.271"/><path fill="none" stroke="#472b29" stroke-linecap="round" stroke-miterlimit="10" d="M41.328,70.632 c-0.473-0.687-0.75-1.518-0.75-2.412c0-1.048,0.38-2.008,1.011-2.753"/><path fill="none" stroke="#472b29" stroke-linecap="round" stroke-miterlimit="10" d="M44.915,72.51 c-0.711,0-1.382-0.169-1.975-0.47"/><path fill="none" stroke="#472b29" stroke-linecap="round" stroke-miterlimit="10" d="M49.274,68.198 c0,1.361-0.648,2.581-1.653,3.373"/><path fill="none" stroke="#472b29" stroke-linecap="round" stroke-linejoin="round" stroke-miterlimit="10" d="M58.524,56.577 c-1.143-0.856-1.883-2.222-1.883-3.76"/><path fill="none" stroke="#472b29" stroke-linecap="round" stroke-linejoin="round" stroke-miterlimit="10" d="M65.666,50.996 c0.236,0.56,0.366,1.175,0.366,1.821c0,2.593-2.102,4.695-4.695,4.695"/><path fill="none" stroke="#472b29" stroke-linecap="round" stroke-linejoin="round" stroke-miterlimit="10" d="M61.337,48.122 c0.972,0,1.876,0.296,2.625,0.802"/></g><g><path fill="#fdfcef" d="M67.449,35.5c0,0-3.64,0-6.125,0s-4.5-2.015-4.5-4.5c0-2.333,1.782-4.229,4.055-4.455 c-0.022-0.181-0.055-0.358-0.055-0.545c0-2.485,2.015-4.5,4.5-4.5c1.438,0,2.703,0.686,3.527,1.736 c0.14-2.636,2.302-4.736,4.973-4.736c2.761,0,5,2.239,5,5c0,0.446-0.077,0.87-0.187,1.282c0.642-0.777,1.6-1.282,2.687-1.282 c1.781,0,3.234,1.335,3.455,3.055c0.181-0.022,0.358-0.055,0.545-0.055c2.485,0,4.5,2.015,4.5,4.5s-2.015,4.5-4.5,4.5 s-9.5,0-9.5,0h-5.375V36h-3V35.5z"/><path fill="#472b29" d="M73.824,18c3.033,0,5.5,2.467,5.5,5.5c0,0.016,0,0.031,0,0.047c0.602-0.355,1.29-0.547,2-0.547 c1.831,0,3.411,1.261,3.858,3.005C85.229,26.002,85.276,26,85.324,26c2.757,0,5,2.243,5,5s-2.243,5-5,5H70.449 c-0.276,0-0.5-0.224-0.5-0.5s0.224-0.5,0.5-0.5h14.875c2.206,0,4-1.794,4-4s-1.794-4-4-4c-0.117,0-0.23,0.017-0.343,0.032 l-0.141,0.019c-0.021,0.003-0.041,0.004-0.062,0.004c-0.246,0-0.462-0.185-0.495-0.437C84.092,25.125,82.82,24,81.324,24 c-0.885,0-1.723,0.401-2.301,1.1c-0.098,0.118-0.241,0.182-0.386,0.182c-0.078,0-0.156-0.018-0.228-0.056 c-0.209-0.107-0.314-0.346-0.254-0.573c0.115-0.435,0.169-0.801,0.169-1.153c0-2.481-2.019-4.5-4.5-4.5 c-2.381,0-4.347,1.872-4.474,4.263c-0.011,0.208-0.15,0.387-0.349,0.45c-0.05,0.016-0.101,0.024-0.152,0.024 c-0.15,0-0.296-0.069-0.392-0.192C67.686,22.563,66.545,22,65.324,22c-2.206,0-4,1.794-4,4c0,0.117,0.017,0.23,0.032,0.343 l0.019,0.141c0.016,0.134-0.022,0.268-0.106,0.373s-0.207,0.172-0.34,0.185c-2.056,0.205-3.605,1.907-3.605,3.958 c0,2.206,1.794,4,4,4h6.125c0.276,0,0.5,0.224,0.5,0.5s-0.224,0.5-0.5,0.5h-6.125c-2.757,0-5-2.243-5-5 c0-2.397,1.689-4.413,4.003-4.877c-0.002-0.041-0.003-0.082-0.003-0.123c0-2.757,2.243-5,5-5c1.176,0,2.293,0.416,3.183,1.164 C69.105,19.76,71.269,18,73.824,18L73.824,18z"/><path fill="#472b29" d="M75.324,25c1.403,0,2.609,0.999,2.913,2.341C78.604,27.119,79.023,27,79.449,27 c1.202,0,2.198,0.897,2.353,2.068C82.005,29.022,82.198,29,82.387,29c1.529,0,2.811,1.2,2.918,2.732 C85.314,31.87,85.21,31.99,85.073,32c-0.006,0-0.012,0-0.018,0c-0.13,0-0.24-0.101-0.249-0.232 c-0.089-1.271-1.151-2.268-2.419-2.268c-0.229,0-0.47,0.042-0.738,0.127c-0.022,0.007-0.045,0.01-0.067,0.01 c-0.055,0-0.11-0.02-0.156-0.054c-0.064-0.046-0.102-0.128-0.102-0.208c0-1.034-0.841-1.875-1.875-1.875 c-0.447,0-0.885,0.168-1.231,0.473c-0.047,0.041-0.106,0.063-0.165,0.063c-0.032,0-0.063-0.006-0.093-0.019 c-0.088-0.035-0.148-0.117-0.155-0.212c-0.104-1.293-1.193-2.305-2.481-2.305c-0.208,0-0.425,0.034-0.682,0.107 c-0.023,0.007-0.047,0.01-0.07,0.01c-0.109,0-0.207-0.073-0.239-0.182c-0.038-0.133,0.039-0.271,0.172-0.309 C74.807,25.04,75.068,25,75.324,25L75.324,25z M61.441,26.5c1.326,0,2.508,0.897,2.874,2.182c0.038,0.133-0.039,0.271-0.172,0.309 C64.119,28.997,64.096,29,64.074,29c-0.109,0-0.209-0.072-0.24-0.182C63.529,27.748,62.545,27,61.441,27 c-0.117,0-0.23,0.014-0.342,0.029c-0.012,0.002-0.023,0.003-0.035,0.003c-0.121,0-0.229-0.092-0.246-0.217 c-0.019-0.137,0.077-0.263,0.214-0.281C61.166,26.516,61.302,26.5,61.441,26.5L61.441,26.5z"/></g></svg>